{"accessors":[{"bufferView":0,"componentType":5126,"count":348,"max":[1.0,1.29999995231628,0.899999976158142],"min":[-1.0,-0.149999976158142,-0.999995946884155],"normalized":false,"type":"VEC3"},{"bufferView":1,"componentType":5126,"count":348,"max":[0.0,0.0,0.7808917760849,-1.0],"min":[-1.0,-1.0,-1.0,-1.0],"normalized":false,"type":"VEC4"},{"bufferView":2,"componentType":5126,"count":348,"max":[1.0,1.0,1.0],"min":[-1.0,-1.0,-1.0],"normalized":false,"type":"VEC3"},{"bufferView":3,"componentType":5126,"count":348,"max":[1.0,1.0],"min":[0.0,0.0],"normalized":false,"type":"VEC2"},{"bufferView":4,"componentType":5123,"count":348,"max":[347.0],"min":[0.0],"normalized":false,"type":"SCALAR"}],"asset":{"generator":"Godot Engine v4.5.stable.arch_linux@unknown","version":"2.0"},"bufferViews":[{"buffer":0,"byteLength":4176,"byteStride":12,"target":34962},{"buffer":0,"byteLength":5568,"byteOffset":4176,"byteStride":16,"target":34962},{"buffer":0,"byteLength":4176,"byteOffset":9744,"byteStride":12,"target":34962},{"buffer":0,"byteLength":2784,"byteOffset":13920,"byteStride":8,"target":34962},{"buffer":0,"byteLength":696,"byteOffset":16704,"target":34963}],"buffers":[{"byteLength":17400,"uri":"higher-steps0.bin"}],"extensionsUsed":["GODOT_single_root"],"materials":[{}],"meshes":[{"primitives":[{"attributes":{"NORMAL":2,"POSITION":0,"TANGENT":1,"TEXCOORD_0":3},"indices":4,"material":0,"mode":4}]}],"nodes":[{"children":[1,2,3,4,5,6,7,8],"mesh":0,"name":"CSGCombiner3D2"},{"name":"CSGBox3D","translation":[0.0,-0.400000005960464,0.400000005960464]},{"name":"CSGBox3D2","translation":[0.0,-0.200000002980232,0.200000002980232]},{"name":"CSGBox3D3"},{"name":"CSGBox3D4","translation":[0.0,0.200000002980232,-0.200000002980232]},{"name":"CSGBox3D5","translation":[0.0,0.400000005960464,-0.400000005960464]},{"name":"CSGBox3D6","translation":[0.0,0.600000023841858,-0.600000023841858]},{"name":"CSGBox3D7","translation":[0.0,0.800000011920929,-0.800000011920929]},{"name":"Intersection","translation":[0.0,0.850000023841858,0.0]}],"scene":0,"scenes":[{"nodes":[0]}]}