<?xml version="1.0" encoding="UTF-8" standalone="no"?>
<svg
   width="16"
   height="16"
   version="1.1"
   id="svg4"
   sodipodi:docname="Sprite3DAlternative.svg"
   xml:space="preserve"
   inkscape:version="1.2.2 (b0a8486541, 2022-12-01)"
   xmlns:inkscape="http://www.inkscape.org/namespaces/inkscape"
   xmlns:sodipodi="http://sodipodi.sourceforge.net/DTD/sodipodi-0.dtd"
   xmlns="http://www.w3.org/2000/svg"
   xmlns:svg="http://www.w3.org/2000/svg"><defs
     id="defs8" /><sodipodi:namedview
     id="namedview6"
     pagecolor="#ffffff"
     bordercolor="#666666"
     borderopacity="1.0"
     inkscape:showpageshadow="2"
     inkscape:pageopacity="0.0"
     inkscape:pagecheckerboard="0"
     inkscape:deskcolor="#d1d1d1"
     showgrid="false"
     inkscape:zoom="30.479792"
     inkscape:cx="11.860317"
     inkscape:cy="10.465951"
     inkscape:window-width="1291"
     inkscape:window-height="702"
     inkscape:window-x="0"
     inkscape:window-y="29"
     inkscape:window-maximized="1"
     inkscape:current-layer="svg4" /><path
     id="path2"
     d="M 5 1 A 4 4 0 0 0 1 5 L 1 11 A 4 4 0 0 0 5 15 L 9.8847656 15 A 3.6273277 3.6273277 0 0 1 9.0664062 13.84375 A 4 4 0 0 1 5.171875 12.828125 A 1 1 0 0 1 6.5859375 11.414062 A 2 2 0 0 0 8.7988281 11.830078 A 3.6273277 3.6273277 0 0 1 11.001953 9.015625 A 1 1 0 0 1 11 9 L 11 7 A 1 1 0 0 1 13 7 L 13 8.8007812 A 3.6273277 3.6273277 0 0 1 15 9.8730469 L 15 5 A 4 4 0 0 0 11 1 L 5 1 z M 3.8574219 6.0097656 A 1 1 0 0 1 5 7 L 5 9 A 1 1 0 0 1 3 9 L 3 7 A 1 1 0 0 1 3.8574219 6.0097656 z "
     style="fill:#fc7f7f;fill-opacity:1" /><g
     id="g3893"
     transform="matrix(0.45481813,0,0,0.45481813,8.6325462,8.6325462)"><circle
       cx="8"
       cy="8"
       r="5"
       fill="none"
       stroke="#fc7f7f"
       stroke-width="2"
       id="circle2" /><rect
       style="fill:#fc7f7f;fill-opacity:1;stroke-width:85.8006;stroke-linecap:round;stroke-linejoin:round"
       id="rect289-7"
       width="10"
       height="2.2640936"
       x="3"
       y="6.8679533" /><rect
       style="fill:#fc7f7f;fill-opacity:1;stroke-width:60.6702;stroke-linecap:round;stroke-linejoin:round"
       id="rect289-2"
       width="5"
       height="2.2640936"
       x="-8"
       y="6.8679533"
       transform="rotate(-90)" /></g></svg>
