{
  "accessors": [
    {
      "bufferView": 2,
      "componentType": 5126,
      "count": 693,
      "max": [
        1500.34033203125,
        1497.886474609375,
        1615.52490234375
      ],
      "min": [
        -1500.340576171875,
        -992.4823608398438,
        -27.549978256225586
      ],
      "type": "VEC3"
    },
    {
      "bufferView": 2,
      "byteOffset": 8316,
      "componentType": 5126,
      "count": 693,
      "max": [
        1.0,
        1.0,
        1.0
      ],
      "min": [
        -1.0,
        -1.0,
        -1.0
      ],
      "type": "VEC3"
    },
    {
      "bufferView": 1,
      "componentType": 5126,
      "count": 693,
      "max": [
        0.9535340070724487,
        0.8048890233039856
      ],
      "min": [
        0.014866000041365623,
        0.00609100004658103
      ],
      "type": "VEC2"
    },
    {
      "bufferView": 0,
      "componentType": 5125,
      "count": 1596,
      "type": "SCALAR"
    },
    {
      "bufferView": 2,
      "byteOffset": 16632,
      "componentType": 5126,
      "count": 17878,
      "max": [
        654.689208984375,
        1133.562744140625,
        159.48361206054688
      ],
      "min": [
        -580.8838500976563,
        -11.703832626342773,
        -7.578293800354004
      ],
      "type": "VEC3"
    },
    {
      "bufferView": 2,
      "byteOffset": 231168,
      "componentType": 5126,
      "count": 17878,
      "max": [
        1.0,
        1.0,
        1.0
      ],
      "min": [
        -1.0,
        -1.0,
        -1.0
      ],
      "type": "VEC3"
    },
    {
      "bufferView": 1,
      "byteOffset": 5544,
      "componentType": 5126,
      "count": 17878,
      "max": [
        0.9870070219039917,
        0.991815984249115
      ],
      "min": [
        0.0021639999467879534,
        0.1232369989156723
      ],
      "type": "VEC2"
    },
    {
      "bufferView": 0,
      "byteOffset": 6384,
      "componentType": 5125,
      "count": 24843,
      "type": "SCALAR"
    },
    {
      "bufferView": 2,
      "byteOffset": 445704,
      "componentType": 5126,
      "count": 8563,
      "max": [
        869.0982055664063,
        1839.12939453125,
        909.2638549804688
      ],
      "min": [
        -1370.5751953125,
        -989.8104248046875,
        -64.8471450805664
      ],
      "type": "VEC3"
    },
    {
      "bufferView": 2,
      "byteOffset": 548460,
      "componentType": 5126,
      "count": 8563,
      "max": [
        1.0,
        1.0,
        1.0
      ],
      "min": [
        -1.0,
        -1.0,
        -1.0
      ],
      "type": "VEC3"
    },
    {
      "bufferView": 1,
      "byteOffset": 148568,
      "componentType": 5126,
      "count": 8563,
      "max": [
        0.9870070219039917,
        0.991815984249115
      ],
      "min": [
        0.0021639999467879534,
        0.03418400138616562
      ],
      "type": "VEC2"
    },
    {
      "bufferView": 0,
      "byteOffset": 105756,
      "componentType": 5125,
      "count": 11850,
      "type": "SCALAR"
    },
    {
      "bufferView": 2,
      "byteOffset": 651216,
      "componentType": 5126,
      "count": 8159,
      "max": [
        1500.0914306640625,
        1506.0885009765625,
        1048.43310546875
      ],
      "min": [
        -1500.0919189453125,
        -1069.2293701171875,
        -132.61468505859375
      ],
      "type": "VEC3"
    },
    {
      "bufferView": 2,
      "byteOffset": 749124,
      "componentType": 5126,
      "count": 8159,
      "max": [
        1.0,
        1.0,
        1.0
      ],
      "min": [
        -1.0,
        -1.0,
        -1.0
      ],
      "type": "VEC3"
    },
    {
      "bufferView": 1,
      "byteOffset": 217072,
      "componentType": 5126,
      "count": 8159,
      "max": [
        0.9870070219039917,
        0.991815984249115
      ],
      "min": [
        0.0021639999467879534,
        0.004736000206321478
      ],
      "type": "VEC2"
    },
    {
      "bufferView": 0,
      "byteOffset": 153156,
      "componentType": 5125,
      "count": 11640,
      "type": "SCALAR"
    }
  ],
  "asset": {
    "extras": {
      "author": "circles xr (https://sketchfab.com/circles_xr)",
      "license": "CC-BY-4.0 (http://creativecommons.org/licenses/by/4.0/)",
      "source": "https://sketchfab.com/3d-models/viola-desmond-the-roseland-theatre-2b59cf678ad9480e90bdb874e48bccd1",
      "title": "[Viola Desmond] The Roseland Theatre"
    },
    "generator": "Sketchfab-15.77.0",
    "version": "2.0"
  },
  "bufferViews": [
    {
      "buffer": 0,
      "byteLength": 199716,
      "name": "floatBufferViews",
      "target": 34963
    },
    {
      "buffer": 0,
      "byteLength": 282344,
      "byteOffset": 199716,
      "byteStride": 8,
      "name": "floatBufferViews",
      "target": 34962
    },
    {
      "buffer": 0,
      "byteLength": 847032,
      "byteOffset": 482060,
      "byteStride": 12,
      "name": "floatBufferViews",
      "target": 34962
    }
  ],
  "buffers": [
    {
      "byteLength": 1329092,
      "uri": "scene.bin"
    }
  ],
  "images": [
    {
      "uri": "textures/aiStandardSurface1SG_baseColor.png"
    },
    {
      "uri": "textures/aiStandardSurface1SG_metallicRoughness.png"
    }
  ],
  "materials": [
    {
      "doubleSided": true,
      "name": "aiStandardSurface1SG",
      "pbrMetallicRoughness": {
        "baseColorTexture": {
          "index": 0
        },
        "metallicRoughnessTexture": {
          "index": 1
        }
      }
    }
  ],
  "meshes": [
    {
      "name": "Object_0",
      "primitives": [
        {
          "attributes": {
            "NORMAL": 1,
            "POSITION": 0,
            "TEXCOORD_0": 2
          },
          "indices": 3,
          "material": 0,
          "mode": 4
        }
      ]
    },
    {
      "name": "Object_1",
      "primitives": [
        {
          "attributes": {
            "NORMAL": 5,
            "POSITION": 4,
            "TEXCOORD_0": 6
          },
          "indices": 7,
          "material": 0,
          "mode": 4
        }
      ]
    },
    {
      "name": "Object_2",
      "primitives": [
        {
          "attributes": {
            "NORMAL": 9,
            "POSITION": 8,
            "TEXCOORD_0": 10
          },
          "indices": 11,
          "material": 0,
          "mode": 4
        }
      ]
    },
    {
      "name": "Object_3",
      "primitives": [
        {
          "attributes": {
            "NORMAL": 13,
            "POSITION": 12,
            "TEXCOORD_0": 14
          },
          "indices": 15,
          "material": 0,
          "mode": 4
        }
      ]
    }
  ],
  "nodes": [
    {
      "children": [
        1
      ],
      "matrix": [
        1.0,
        0.0,
        0.0,
        0.0,
        0.0,
        2.220446049250313e-16,
        -1.0,
        0.0,
        0.0,
        1.0,
        2.220446049250313e-16,
        0.0,
        0.0,
        0.0,
        0.0,
        1.0
      ],
      "name": "Sketchfab_model"
    },
    {
      "children": [
        2,
        3,
        4,
        5
      ],
      "name": "Theatre.obj.cleaner.materialmerger.gles"
    },
    {
      "mesh": 0,
      "name": "Object_2"
    },
    {
      "mesh": 1,
      "name": "Object_3"
    },
    {
      "mesh": 2,
      "name": "Object_4"
    },
    {
      "mesh": 3,
      "name": "Object_5"
    }
  ],
  "samplers": [
    {
      "magFilter": 9729,
      "minFilter": 9987,
      "wrapS": 10497,
      "wrapT": 10497
    }
  ],
  "scene": 0,
  "scenes": [
    {
      "name": "Sketchfab_Scene",
      "nodes": [
        0
      ]
    }
  ],
  "textures": [
    {
      "sampler": 0,
      "source": 0
    },
    {
      "sampler": 0,
      "source": 1
    }
  ]
}
